<svg width="271" height="271" viewBox="0 0 271 271" fill="none" xmlns="http://www.w3.org/2000/svg">
<rect width="271" height="271" rx="55" fill="#FEFEFE"/>
<path fill-rule="evenodd" clip-rule="evenodd" d="M55 0C24.6243 0 0 24.6243 0 55V216C0 246.376 24.6243 271 55 271H216C246.376 271 271 246.376 271 216V55C271 24.6243 246.376 0 216 0H55ZM86.753 59.8494L86.2273 58.2314L85.7015 59.8494L77.4276 85.3139H50.6527H48.9514L50.3277 86.3139L71.9891 102.052L63.7152 127.516L63.1895 129.134L64.5659 128.134L86.2273 112.396L107.889 128.134L109.265 129.134L108.739 127.516L100.465 102.052L122.127 86.3139L123.503 85.3139H121.802H95.0269L86.753 59.8494ZM181.666 126.036L169.095 87.3471L156.524 126.036H115.844L148.755 149.948L136.184 188.637L169.095 164.726L202.006 188.637L189.435 149.948L222.346 126.036H181.666ZM108.008 173.923L101.345 153.417L94.6824 173.923H73.1218L90.5647 186.596L83.9021 207.101L101.345 194.428L118.788 207.101L112.125 186.596L129.568 173.923H108.008Z" fill="#233862"/>
</svg>
